<svg xmlns="http://www.w3.org/2000/svg" width="788.205" height="512" viewBox="0 0 788.205 512">
  <defs>
    <style>
      .cls-1 {
        fill: #fff;
      }
    </style>
  </defs>
  <g id="Group_2" data-name="Group 2" transform="translate(-800 -284)">
    <path id="mobile-button" d="M96,16A48.012,48.012,0,0,0,48,64V448a48.012,48.012,0,0,0,48,48H288a48.012,48.012,0,0,0,48-48V64a48.012,48.012,0,0,0-48-48ZM32,64A64.059,64.059,0,0,1,96,0H288a64.059,64.059,0,0,1,64,64V448a64.059,64.059,0,0,1-64,64H96a64.059,64.059,0,0,1-64-64ZM176,432a16,16,0,1,0,16-16A16,16,0,0,0,176,432Zm16,32a32,32,0,1,1,32-32A32,32,0,0,1,192,464Z" transform="translate(768 284)"/>
    <g id="Group_1" data-name="Group 1">
      <path id="Path_1" data-name="Path 1" d="M42.149-10.3A19.639,19.639,0,0,1,34.8-2.2,20.015,20.015,0,0,1,24.207.626,20.057,20.057,0,0,1,13.591-2.2a19.624,19.624,0,0,1-7.349-8.11,27.488,27.488,0,0,1-2.685-12.6A27.472,27.472,0,0,1,6.242-35.516a19.639,19.639,0,0,1,7.349-8.1,20.057,20.057,0,0,1,10.616-2.83A20.015,20.015,0,0,1,34.8-43.615a19.639,19.639,0,0,1,7.349,8.1C43.939-32,43.939-13.815,42.149-10.3ZM37.988-22.909a22.111,22.111,0,0,0-1.8-9.43,13.412,13.412,0,0,0-4.922-5.817,12.9,12.9,0,0,0-7.058-1.98,12.88,12.88,0,0,0-7.07,1.98,13.44,13.44,0,0,0-4.911,5.817,22.111,22.111,0,0,0-1.8,9.43,22.111,22.111,0,0,0,1.8,9.43,13.44,13.44,0,0,0,4.911,5.817,12.88,12.88,0,0,0,7.07,1.98,12.9,12.9,0,0,0,7.058-1.98,13.412,13.412,0,0,0,4.922-5.817A22.111,22.111,0,0,0,37.988-22.909ZM53.425,0V-45.818H69.756a18.115,18.115,0,0,1,8.859,1.946,12.665,12.665,0,0,1,5.257,5.313,16.212,16.212,0,0,1,1.745,7.573,16.176,16.176,0,0,1-1.756,7.6,12.787,12.787,0,0,1-5.28,5.325,18.043,18.043,0,0,1-8.848,1.958H58.5v-5.862h10.6a11.19,11.19,0,0,0,5.481-1.175,7.242,7.242,0,0,0,3.087-3.21,10.507,10.507,0,0,0,.984-4.631,10.363,10.363,0,0,0-.984-4.609,7.072,7.072,0,0,0-3.1-3.154,11.7,11.7,0,0,0-5.559-1.141h-8.68V0Zm40.27,0V-45.818H122.42v5.951H100.608v13.96h20.314v5.929H100.608V-5.951h22.081V0Zm74.969-45.818V0H162.31L139.021-33.6H138.6V0h-6.913V-45.818h6.4L161.393-12.17h.425V-45.818Zm26.757,0h8.39L218.4-10.2h.537l14.587-35.616h8.39V0h-6.577V-33.156h-.425L221.395-.067h-5.459L202.423-33.178H202V0h-6.577ZM251.978,0V-45.818H280.7v5.951H258.891v13.96H279.2v5.929H258.891V-5.951h22.081V0ZM14,76,1.3,30.182H8.569L17.5,65.664h.425L27.2,30.182h7.2l9.284,35.5h.425l8.9-35.5h7.293L47.586,76H40.628L30.985,41.681h-.358L20.985,76ZM73.56,30.182V76H66.647V30.182Zm7.808,5.951V30.182h35.46v5.951h-14.3V76H95.641V36.133ZM124.635,76V30.182h6.913V50.093H154.39V30.182h6.935V76H154.39V56.022H131.548V76Zm61.188-39.867V30.182h35.46v5.951h-14.3V76H200.1V36.133ZM229.091,76V30.182H236V50.093h22.842V30.182h6.935V76h-6.935V56.022H236V76Zm46.758,0V30.182h28.726v5.951H282.762v13.96h20.314v5.929H282.762V70.049h22.081V76ZM8.9,152H1.566l16.488-45.818h7.987L42.529,152H35.191L22.238,114.5H21.88Zm1.23-17.942h23.8v5.817h-23.8ZM49.129,152V106.182H65.461a18.115,18.115,0,0,1,8.859,1.946,12.665,12.665,0,0,1,5.257,5.313,17.3,17.3,0,0,1-.011,15.168,12.787,12.787,0,0,1-5.28,5.325,18.044,18.044,0,0,1-8.848,1.958H54.208v-5.861h10.6a11.189,11.189,0,0,0,5.481-1.175,7.242,7.242,0,0,0,3.087-3.21,10.507,10.507,0,0,0,.984-4.631,10.363,10.363,0,0,0-.984-4.609,7.072,7.072,0,0,0-3.1-3.154,11.7,11.7,0,0,0-5.559-1.141h-8.68V152Zm40.27,0V106.182h16.332a18.115,18.115,0,0,1,8.859,1.946,12.665,12.665,0,0,1,5.257,5.313,17.3,17.3,0,0,1-.011,15.168,12.787,12.787,0,0,1-5.28,5.325,18.044,18.044,0,0,1-8.848,1.958H94.478v-5.861h10.6a11.19,11.19,0,0,0,5.481-1.175,7.242,7.242,0,0,0,3.087-3.21,10.508,10.508,0,0,0,.984-4.631,10.363,10.363,0,0,0-.984-4.609,7.072,7.072,0,0,0-3.1-3.154,11.7,11.7,0,0,0-5.559-1.141h-8.68V152Zm40.27,0V106.182H146a19.046,19.046,0,0,1,8.848,1.835,12.2,12.2,0,0,1,5.269,5.067,15.463,15.463,0,0,1,1.745,7.461,15.077,15.077,0,0,1-1.756,7.394,11.951,11.951,0,0,1-5.28,4.955,19.658,19.658,0,0,1-8.848,1.767H133.607v-5.951h11.745a13.3,13.3,0,0,0,5.47-.962,6.371,6.371,0,0,0,3.1-2.8,9.2,9.2,0,0,0,.984-4.407,9.571,9.571,0,0,0-1-4.5,6.625,6.625,0,0,0-3.11-2.92,12.838,12.838,0,0,0-5.537-1.018h-8.68V152Zm22.618-20.672L163.608,152h-7.875l-11.1-20.672Zm57.81-2.237a27.471,27.471,0,0,1-2.685,12.607,19.639,19.639,0,0,1-7.349,8.1,21.283,21.283,0,0,1-21.209,0,19.624,19.624,0,0,1-7.349-8.11,27.488,27.488,0,0,1-2.685-12.6,27.472,27.472,0,0,1,2.685-12.607,19.639,19.639,0,0,1,7.349-8.1,21.283,21.283,0,0,1,21.209,0,19.639,19.639,0,0,1,7.349,8.1A27.472,27.472,0,0,1,210.1,129.091Zm-6.846,0a22.111,22.111,0,0,0-1.8-9.43,13.412,13.412,0,0,0-4.922-5.817,13.591,13.591,0,0,0-14.128,0,13.44,13.44,0,0,0-4.911,5.817,22.111,22.111,0,0,0-1.8,9.43,22.111,22.111,0,0,0,1.8,9.43,13.44,13.44,0,0,0,4.911,5.817,13.591,13.591,0,0,0,14.128,0,13.412,13.412,0,0,0,4.922-5.817A22.111,22.111,0,0,0,203.251,129.091ZM218.688,152V106.182H235.02a18.115,18.115,0,0,1,8.859,1.946,12.665,12.665,0,0,1,5.257,5.313,17.3,17.3,0,0,1-.011,15.168,12.787,12.787,0,0,1-5.28,5.325A18.043,18.043,0,0,1,235,135.892H223.766v-5.861h10.6a11.19,11.19,0,0,0,5.481-1.175,7.242,7.242,0,0,0,3.087-3.21,10.507,10.507,0,0,0,.984-4.631,10.363,10.363,0,0,0-.984-4.609,7.072,7.072,0,0,0-3.1-3.154,11.7,11.7,0,0,0-5.559-1.141H225.6V152Zm40.27,0V106.182h16.332a19.047,19.047,0,0,1,8.848,1.835,12.2,12.2,0,0,1,5.269,5.067,15.463,15.463,0,0,1,1.745,7.461,15.077,15.077,0,0,1-1.756,7.394,11.951,11.951,0,0,1-5.28,4.955,19.658,19.658,0,0,1-8.848,1.767H262.9v-5.951h11.745a13.3,13.3,0,0,0,5.47-.962,6.371,6.371,0,0,0,3.1-2.8,9.2,9.2,0,0,0,.984-4.407,9.571,9.571,0,0,0-1-4.5,6.625,6.625,0,0,0-3.11-2.92,12.838,12.838,0,0,0-5.537-1.018h-8.68V152Zm22.618-20.672L292.9,152h-7.875l-11.1-20.672ZM306.5,106.182V152h-6.913V106.182ZM320.436,152H313.1l16.488-45.818h7.987L354.062,152h-7.338L333.77,114.5h-.358Zm1.23-17.942h23.8v5.817h-23.8Zm31.276-21.925v-5.951H388.4v5.951h-14.3V152h-6.891V112.133ZM396.211,152V106.182h28.726v5.951H403.124v13.96h20.314v5.929H403.124v14.027h22.081V152ZM80.763,181.555Zm-50.74,88.663a6.57,6.57,0,0,0-2.953-4.933,11.406,11.406,0,0,0-6.533-1.756,12.3,12.3,0,0,0-4.877.884,7.544,7.544,0,0,0-3.188,2.416,5.714,5.714,0,0,0-1.13,3.479,5.052,5.052,0,0,0,.772,2.819,6.541,6.541,0,0,0,2.036,1.98,14.105,14.105,0,0,0,2.718,1.32,28.767,28.767,0,0,0,2.8.861l4.474,1.163a34.124,34.124,0,0,1,4.5,1.454,18.026,18.026,0,0,1,4.273,2.416,11.7,11.7,0,0,1,3.188,3.714,10.839,10.839,0,0,1,1.219,5.3,12.224,12.224,0,0,1-2,6.913,13.51,13.51,0,0,1-5.794,4.765,21.8,21.8,0,0,1-9.161,1.745,22.227,22.227,0,0,1-8.9-1.633,13.677,13.677,0,0,1-5.884-4.642,13.366,13.366,0,0,1-2.349-7.148h6.935a6.992,6.992,0,0,0,1.622,4.128,8.476,8.476,0,0,0,3.647,2.439,14.456,14.456,0,0,0,4.888.794,13.825,13.825,0,0,0,5.224-.928,8.609,8.609,0,0,0,3.613-2.6,6.1,6.1,0,0,0,1.32-3.9,4.833,4.833,0,0,0-1.152-3.333,8.726,8.726,0,0,0-3.11-2.148,30.875,30.875,0,0,0-4.419-1.5l-5.414-1.477a20.977,20.977,0,0,1-8.714-4.407,9.884,9.884,0,0,1-3.21-7.7A11.439,11.439,0,0,1,6.6,263.8a14.189,14.189,0,0,1,5.817-4.6,20.029,20.029,0,0,1,8.278-1.644,19.564,19.564,0,0,1,8.222,1.633,13.889,13.889,0,0,1,5.627,4.486,11.388,11.388,0,0,1,2.148,6.544Zm53.6,2.864h-6.98a10.671,10.671,0,0,0-1.5-3.937,11.017,11.017,0,0,0-2.685-2.886,11.591,11.591,0,0,0-3.546-1.79,14,14,0,0,0-4.15-.6,12.882,12.882,0,0,0-7.081,1.991,13.477,13.477,0,0,0-4.922,5.839,25.529,25.529,0,0,0,0,18.837,13.3,13.3,0,0,0,4.933,5.817,12.967,12.967,0,0,0,7.047,1.969,14.165,14.165,0,0,0,4.128-.593,11.681,11.681,0,0,0,3.546-1.756,10.925,10.925,0,0,0,2.7-2.852,10.721,10.721,0,0,0,1.533-3.882l6.98.022a18.722,18.722,0,0,1-2.159,6.208,17.2,17.2,0,0,1-4.094,4.877,18.532,18.532,0,0,1-5.694,3.166,21.015,21.015,0,0,1-6.98,1.119,20,20,0,0,1-10.6-2.83,19.576,19.576,0,0,1-7.327-8.11,30.975,30.975,0,0,1,.011-25.2,19.665,19.665,0,0,1,7.338-8.1,19.957,19.957,0,0,1,10.582-2.83,21.693,21.693,0,0,1,6.812,1.04,18.279,18.279,0,0,1,5.694,3.043,16.933,16.933,0,0,1,4.184,4.877A18.942,18.942,0,0,1,83.627,273.082ZM91.9,304V258.182h16.332a19.047,19.047,0,0,1,8.848,1.835,12.2,12.2,0,0,1,5.269,5.067,15.463,15.463,0,0,1,1.745,7.461,15.077,15.077,0,0,1-1.756,7.394,11.951,11.951,0,0,1-5.28,4.955,19.658,19.658,0,0,1-8.848,1.767H95.842v-5.951h11.745a13.3,13.3,0,0,0,5.47-.962,6.371,6.371,0,0,0,3.1-2.8,9.2,9.2,0,0,0,.984-4.407,9.571,9.571,0,0,0-1-4.5,6.625,6.625,0,0,0-3.11-2.92,12.838,12.838,0,0,0-5.537-1.018h-8.68V304Zm22.618-20.672L125.843,304h-7.875l-11.1-20.672ZM132.533,304V258.182h28.726v5.951H139.446v13.96H159.76v5.929H139.446v14.027h22.081V304Zm37.988,0V258.182h28.726v5.951H177.434v13.96h20.314v5.929H177.434v14.027h22.081V304Zm74.969-45.818V304h-6.354l-23.289-33.6h-.425V304h-6.913V258.182h6.4l23.312,33.648h.425V258.182Zm51.747,12.036a6.57,6.57,0,0,0-2.953-4.933,11.406,11.406,0,0,0-6.533-1.756,12.3,12.3,0,0,0-4.877.884,7.544,7.544,0,0,0-3.188,2.416,5.713,5.713,0,0,0-1.13,3.479,5.052,5.052,0,0,0,.772,2.819,6.541,6.541,0,0,0,2.036,1.98,14.106,14.106,0,0,0,2.718,1.32,28.765,28.765,0,0,0,2.8.861l4.474,1.163a34.125,34.125,0,0,1,4.5,1.454,18.026,18.026,0,0,1,4.273,2.416,11.7,11.7,0,0,1,3.188,3.714,10.839,10.839,0,0,1,1.219,5.3,12.224,12.224,0,0,1-2,6.913,13.51,13.51,0,0,1-5.794,4.765,21.8,21.8,0,0,1-9.161,1.745,22.227,22.227,0,0,1-8.9-1.633,13.677,13.677,0,0,1-5.884-4.642,13.366,13.366,0,0,1-2.349-7.148h6.935a6.993,6.993,0,0,0,1.622,4.128,8.476,8.476,0,0,0,3.647,2.439,14.456,14.456,0,0,0,4.888.794,13.825,13.825,0,0,0,5.224-.928,8.609,8.609,0,0,0,3.613-2.6,6.1,6.1,0,0,0,1.32-3.9,4.833,4.833,0,0,0-1.152-3.333,8.727,8.727,0,0,0-3.11-2.148,30.874,30.874,0,0,0-4.418-1.5l-5.414-1.477a20.977,20.977,0,0,1-8.714-4.407,9.884,9.884,0,0,1-3.21-7.7,11.439,11.439,0,0,1,2.148-6.913,14.189,14.189,0,0,1,5.817-4.6,20.029,20.029,0,0,1,8.278-1.644,19.564,19.564,0,0,1,8.222,1.633,13.889,13.889,0,0,1,5.627,4.486,11.388,11.388,0,0,1,2.148,6.544ZM319.7,258.182V304h-6.913V258.182ZM328.58,304v-4.609l24.095-35.259h-24.3v-5.951h32.753v4.609l-24.095,35.259h24.3V304Zm41.433,0V258.182h28.726v5.951H376.926v13.96H397.24v5.929H376.926v14.027h22.081V304Z" transform="translate(1163 400)"/>
      <path id="Path_2" data-name="Path 2" class="cls-1" d="M5.034,182.182h8.39L28.01,217.8h.537l14.587-35.616h8.39V228H44.946V194.844h-.425L31.008,227.933H25.549L12.036,194.822h-.425V228H5.034Zm96.357,22.909A27.472,27.472,0,0,1,98.706,217.7a19.639,19.639,0,0,1-7.349,8.1,21.283,21.283,0,0,1-21.209,0,19.624,19.624,0,0,1-7.349-8.11,30.916,30.916,0,0,1,0-25.2,19.639,19.639,0,0,1,7.349-8.1,21.283,21.283,0,0,1,21.209,0,19.639,19.639,0,0,1,7.349,8.1A27.472,27.472,0,0,1,101.391,205.091Zm-6.846,0a22.111,22.111,0,0,0-1.8-9.43,13.412,13.412,0,0,0-4.922-5.817,13.591,13.591,0,0,0-14.128,0,13.44,13.44,0,0,0-4.911,5.817,25.588,25.588,0,0,0,0,18.86,13.44,13.44,0,0,0,4.911,5.817,13.591,13.591,0,0,0,14.128,0,13.412,13.412,0,0,0,4.922-5.817A22.111,22.111,0,0,0,94.545,205.091ZM109.982,228V182.182h16.779a18.007,18.007,0,0,1,8.076,1.6,11.11,11.11,0,0,1,4.788,4.318,11.9,11.9,0,0,1,1.588,6.119,10.085,10.085,0,0,1-1.051,4.821,8.576,8.576,0,0,1-2.808,3.132,12.408,12.408,0,0,1-3.859,1.711v.447a9.254,9.254,0,0,1,4.463,1.465,10.676,10.676,0,0,1,3.613,3.837,11.91,11.91,0,0,1,1.432,6.04,12.152,12.152,0,0,1-1.644,6.3,11.263,11.263,0,0,1-5.067,4.407A20.471,20.471,0,0,1,127.544,228Zm6.913-5.929h9.978q4.967,0,7.114-1.924a6.19,6.19,0,0,0,2.148-4.81,7.549,7.549,0,0,0-1.1-3.982,7.849,7.849,0,0,0-3.121-2.886,10.106,10.106,0,0,0-4.8-1.074H116.895Zm0-20.068h9.262a9.587,9.587,0,0,0,4.195-.895,7.387,7.387,0,0,0,2.976-2.517,6.638,6.638,0,0,0,1.107-3.837,6.361,6.361,0,0,0-1.991-4.765q-1.991-1.924-6.108-1.924h-9.441Zm41.21-19.822V228h-6.913V182.182ZM168.172,228V182.182h6.913v39.867h20.761V228Zm35.549,0V182.182h28.726v5.951H210.634v13.96h20.314v5.929H210.634v14.027h22.081V228Z" transform="translate(1163 400)"/>
    </g>
  </g>
</svg>
