<svg xmlns="http://www.w3.org/2000/svg" xmlns:xlink="http://www.w3.org/1999/xlink" width="430" height="390" viewBox="0 0 430 390"><defs><linearGradient id="a" x1="0.47" y1="-0.438" x2="0.542" y2="1.313" gradientUnits="objectBoundingBox"><stop offset="0" stop-color="#ffccd5" stop-opacity="0"/><stop offset="0.494" stop-color="#ff8095" stop-opacity="0.259"/><stop offset="1" stop-color="#ffccd5" stop-opacity="0"/></linearGradient></defs><g transform="translate(-1 -548)"><path d="M19.622,15.417a15.42,15.42,0,0,1,25.229-11.9A15.42,15.42,0,0,1,66.558,25.229a15.424,15.424,0,0,1-17.5,24.177V65.419A39.177,39.177,0,0,1,79.891,50.457H84.8A4.9,4.9,0,0,1,89.7,55.363,34.35,34.35,0,0,1,55.363,89.7H34.339A34.35,34.35,0,0,1,0,55.363a4.9,4.9,0,0,1,4.906-4.906H9.811A39.177,39.177,0,0,1,40.646,65.419V49.406a15.262,15.262,0,0,1-5.606,1.051,15.42,15.42,0,0,1-11.9-25.229A15.4,15.4,0,0,1,19.622,15.417ZM35.04,8.41a7.01,7.01,0,0,0-3.4,13.14,4.2,4.2,0,0,1,0,7.358,7.01,7.01,0,1,0,9.531,9.531,4.2,4.2,0,0,1,7.358,0,7.01,7.01,0,1,0,9.531-9.531,4.2,4.2,0,0,1,0-7.358,7.01,7.01,0,1,0-9.531-9.531,4.2,4.2,0,0,1-7.358,0A7.01,7.01,0,0,0,35.04,8.41ZM8.637,58.867a25.937,25.937,0,0,0,25.7,22.425H39.49A30.843,30.843,0,0,0,9.811,58.867Zm72.41,0H79.891A30.843,30.843,0,0,0,50.212,81.292h5.151a25.937,25.937,0,0,0,25.7-22.425Zm-36.2-39.244a5.606,5.606,0,1,1-5.606,5.606A5.606,5.606,0,0,1,44.851,19.622Z" transform="matrix(0.788, -0.616, 0.616, 0.788, 75.886, 806.092)" fill="url(#a)"/><path d="M15.811,12.423A12.425,12.425,0,0,1,36.139,2.837,12.425,12.425,0,0,1,53.629,20.328a12.428,12.428,0,0,1-14.1,19.481v12.9A31.567,31.567,0,0,1,64.372,40.656h3.953a3.946,3.946,0,0,1,3.953,3.953A27.677,27.677,0,0,1,44.609,72.277H27.669A27.677,27.677,0,0,1,0,44.609a3.946,3.946,0,0,1,3.953-3.953H7.905A31.567,31.567,0,0,1,32.751,52.712v-12.9a12.3,12.3,0,0,1-4.517.847,12.425,12.425,0,0,1-9.585-20.328A12.41,12.41,0,0,1,15.811,12.423ZM28.233,6.776a5.648,5.648,0,0,0-2.739,10.588,3.386,3.386,0,0,1,0,5.929,5.648,5.648,0,1,0,7.679,7.679,3.386,3.386,0,0,1,5.929,0,5.648,5.648,0,1,0,7.679-7.679,3.386,3.386,0,0,1,0-5.929A5.648,5.648,0,1,0,39.1,9.684a3.385,3.385,0,0,1-5.929,0A5.648,5.648,0,0,0,28.233,6.776ZM6.96,47.432A20.9,20.9,0,0,0,27.669,65.5h4.15A24.852,24.852,0,0,0,7.905,47.432Zm58.344,0h-.932A24.852,24.852,0,0,0,40.458,65.5h4.15A20.9,20.9,0,0,0,65.318,47.432ZM36.139,15.811a4.517,4.517,0,1,1-4.517,4.517A4.517,4.517,0,0,1,36.139,15.811Z" transform="translate(321.145 699.554) rotate(30)" fill="url(#a)"/><path d="M21.51,16.9A16.9,16.9,0,0,1,49.165,3.86,16.9,16.9,0,0,1,72.96,27.655a16.907,16.907,0,0,1-19.186,26.5V71.711a42.945,42.945,0,0,1,33.8-16.4h5.377a5.369,5.369,0,0,1,5.377,5.377A37.653,37.653,0,0,1,60.688,98.329H37.642A37.653,37.653,0,0,1,0,60.688,5.369,5.369,0,0,1,5.377,55.31h5.377a42.945,42.945,0,0,1,33.8,16.4V54.158A16.73,16.73,0,0,1,38.41,55.31,16.9,16.9,0,0,1,25.37,27.655,16.883,16.883,0,0,1,21.51,16.9Zm16.9-7.682a7.684,7.684,0,0,0-3.726,14.4,4.606,4.606,0,0,1,0,8.066A7.684,7.684,0,1,0,45.132,42.136a4.606,4.606,0,0,1,8.066,0A7.684,7.684,0,1,0,63.645,31.688a4.606,4.606,0,0,1,0-8.066A7.684,7.684,0,1,0,53.2,13.175a4.606,4.606,0,0,1-8.066,0A7.684,7.684,0,0,0,38.41,9.218ZM9.468,64.529A28.432,28.432,0,0,0,37.642,89.111h5.646A33.81,33.81,0,0,0,10.755,64.529Zm79.374,0H87.575A33.81,33.81,0,0,0,55.041,89.111h5.646A28.432,28.432,0,0,0,88.861,64.529ZM49.165,21.51a6.146,6.146,0,1,1-6.146,6.146A6.146,6.146,0,0,1,49.165,21.51Z" transform="translate(158.451 588.835)" fill="url(#a)"/><path d="M11.384,8.945a8.946,8.946,0,0,1,14.637-6.9A8.946,8.946,0,0,1,38.614,14.637,8.948,8.948,0,0,1,28.46,28.663v9.29a22.729,22.729,0,0,1,17.889-8.68H49.2a2.841,2.841,0,0,1,2.846,2.846A19.928,19.928,0,0,1,32.119,52.041h-12.2A19.928,19.928,0,0,1,0,32.119a2.841,2.841,0,0,1,2.846-2.846H5.692a22.729,22.729,0,0,1,17.889,8.68v-9.29a8.854,8.854,0,0,1-3.253.61,8.946,8.946,0,0,1-6.9-14.637A8.935,8.935,0,0,1,11.384,8.945Zm8.945-4.066A4.067,4.067,0,0,0,18.357,12.5a2.438,2.438,0,0,1,0,4.269A4.067,4.067,0,1,0,23.886,22.3a2.438,2.438,0,0,1,4.269,0,4.067,4.067,0,1,0,5.529-5.529,2.438,2.438,0,0,1,0-4.269,4.067,4.067,0,1,0-5.529-5.529,2.438,2.438,0,0,1-4.269,0A4.067,4.067,0,0,0,20.329,4.879ZM5.011,34.152a15.048,15.048,0,0,0,14.911,13.01H22.91A17.894,17.894,0,0,0,5.692,34.152Zm42.009,0h-.671a17.894,17.894,0,0,0-17.218,13.01h2.988A15.048,15.048,0,0,0,47.03,34.152Zm-21-22.768a3.253,3.253,0,1,1-3.253,3.253A3.253,3.253,0,0,1,26.021,11.384Z" transform="translate(312.055 574.021) rotate(-30)" fill="url(#a)"/><path d="M19.687,15.468A15.471,15.471,0,0,1,45,3.533,15.471,15.471,0,0,1,66.777,25.312a15.474,15.474,0,0,1-17.56,24.257V65.634A39.305,39.305,0,0,1,80.153,50.623h4.922A4.914,4.914,0,0,1,90,55.545,34.463,34.463,0,0,1,55.545,90H34.452A34.463,34.463,0,0,1,0,55.545a4.914,4.914,0,0,1,4.922-4.922H9.843A39.305,39.305,0,0,1,40.78,65.634V49.568a15.312,15.312,0,0,1-5.625,1.055A15.471,15.471,0,0,1,23.22,25.312,15.452,15.452,0,0,1,19.687,15.468ZM35.155,8.437a7.033,7.033,0,0,0-3.41,13.183,4.215,4.215,0,0,1,0,7.383,7.033,7.033,0,1,0,9.562,9.562,4.215,4.215,0,0,1,7.383,0A7.033,7.033,0,1,0,58.252,29a4.215,4.215,0,0,1,0-7.383,7.033,7.033,0,1,0-9.562-9.562,4.215,4.215,0,0,1-7.383,0A7.033,7.033,0,0,0,35.155,8.437ZM8.666,59.06a26.023,26.023,0,0,0,25.786,22.5H39.62A30.944,30.944,0,0,0,9.843,59.06Zm72.648,0h-1.16a30.944,30.944,0,0,0-29.776,22.5h5.168a26.023,26.023,0,0,0,25.786-22.5ZM45,19.687a5.625,5.625,0,1,1-5.625,5.625A5.625,5.625,0,0,1,45,19.687Z" transform="translate(308.063 858.374) rotate(-30)" fill="url(#a)"/><path d="M17.226,13.535A13.537,13.537,0,0,1,39.375,3.092,13.537,13.537,0,0,1,58.431,22.148,13.54,13.54,0,0,1,43.066,43.374V57.432A34.393,34.393,0,0,1,70.136,44.3h4.307A4.3,4.3,0,0,1,78.749,48.6,30.156,30.156,0,0,1,48.6,78.749H30.146A30.156,30.156,0,0,1,0,48.6,4.3,4.3,0,0,1,4.307,44.3H8.613a34.393,34.393,0,0,1,27.07,13.135V43.374a13.4,13.4,0,0,1-4.922.923A13.537,13.537,0,0,1,20.318,22.148,13.521,13.521,0,0,1,17.226,13.535ZM30.761,7.383a6.154,6.154,0,0,0-2.984,11.536,3.689,3.689,0,0,1,0,6.46,6.154,6.154,0,1,0,8.367,8.367,3.689,3.689,0,0,1,6.46,0,6.154,6.154,0,1,0,8.367-8.367,3.689,3.689,0,0,1,0-6.46A6.154,6.154,0,1,0,42.6,10.551a3.689,3.689,0,0,1-6.46,0A6.154,6.154,0,0,0,30.761,7.383ZM7.583,51.679A22.77,22.77,0,0,0,30.146,71.366h4.522A27.077,27.077,0,0,0,8.613,51.679Zm63.568,0H70.136A27.077,27.077,0,0,0,44.081,71.366H48.6A22.77,22.77,0,0,0,71.166,51.679ZM39.375,17.226a4.922,4.922,0,1,1-4.922,4.922A4.922,4.922,0,0,1,39.375,17.226Z" transform="translate(34.802 686.194) rotate(11)" fill="url(#a)"/><path d="M37.2,1.1a3.237,3.237,0,0,0-4.863,0L25.672,8.6,18.3,2.866a3.277,3.277,0,0,0-3.436-.353,3.216,3.216,0,0,0-1.82,2.92V20.646A18.475,18.475,0,0,0,31.512,39.119v11.6a30.373,30.373,0,0,0-23.906-11.6H3.8a3.8,3.8,0,0,0-3.8,3.8A26.631,26.631,0,0,0,26.622,69.544h16.3A26.631,26.631,0,0,0,69.544,42.922a3.8,3.8,0,0,0-3.8-3.8h-3.8a30.373,30.373,0,0,0-23.906,11.6v-11.6A18.474,18.474,0,0,0,56.5,20.646V5.433a3.268,3.268,0,0,0-5.27-2.581L43.873,8.6Z" transform="matrix(0.891, 0.454, -0.454, 0.891, 61.804, 557.7)" fill="url(#a)"/><path d="M36.577,1.082a3.182,3.182,0,0,0-4.781,0L25.239,8.453,17.988,2.818a3.222,3.222,0,0,0-3.379-.347A3.162,3.162,0,0,0,12.82,5.342V20.3A18.163,18.163,0,0,0,30.982,38.46v11.4a29.862,29.862,0,0,0-23.5-11.4H3.739A3.733,3.733,0,0,0,0,42.2,26.182,26.182,0,0,0,26.174,68.373H42.2A26.182,26.182,0,0,0,68.373,42.2a3.733,3.733,0,0,0-3.739-3.739H60.895a29.862,29.862,0,0,0-23.5,11.4V38.46A18.163,18.163,0,0,0,55.553,20.3V5.342A3.213,3.213,0,0,0,50.372,2.8L43.134,8.453Z" transform="matrix(0.966, 0.259, -0.259, 0.966, 215.275, 701.534)" fill="url(#a)"/><path d="M28.191.834a2.453,2.453,0,0,0-3.685,0L19.453,6.515,13.864,2.172a2.483,2.483,0,0,0-2.6-.268A2.437,2.437,0,0,0,9.881,4.117V15.644a14,14,0,0,0,14,14v8.79a23.015,23.015,0,0,0-18.115-8.79H2.882A2.877,2.877,0,0,0,0,32.524,20.179,20.179,0,0,0,20.173,52.7H32.524A20.179,20.179,0,0,0,52.7,32.524a2.877,2.877,0,0,0-2.882-2.882H46.933a23.015,23.015,0,0,0-18.115,8.79v-8.79a14,14,0,0,0,14-14V4.117a2.477,2.477,0,0,0-3.993-1.956L33.245,6.515Z" transform="translate(208.157 894.312) rotate(-34)" fill="url(#a)"/><path d="M36.577,1.082a3.182,3.182,0,0,0-4.781,0L25.239,8.453,17.988,2.818a3.222,3.222,0,0,0-3.379-.347A3.162,3.162,0,0,0,12.82,5.342V20.3A18.163,18.163,0,0,0,30.982,38.46v11.4a29.862,29.862,0,0,0-23.5-11.4H3.739A3.733,3.733,0,0,0,0,42.2,26.182,26.182,0,0,0,26.174,68.373H42.2A26.182,26.182,0,0,0,68.373,42.2a3.733,3.733,0,0,0-3.739-3.739H60.895a29.862,29.862,0,0,0-23.5,11.4V38.46A18.163,18.163,0,0,0,55.553,20.3V5.342A3.213,3.213,0,0,0,50.372,2.8L43.134,8.453Z" transform="translate(315.014 648.632) rotate(-28)" fill="url(#a)"/><path d="M50.286,1.487a4.375,4.375,0,0,0-6.573,0L34.7,11.621,24.73,3.874A4.43,4.43,0,0,0,20.085,3.4a4.347,4.347,0,0,0-2.46,3.947V27.906A24.971,24.971,0,0,0,42.594,52.875V68.554A41.054,41.054,0,0,0,10.281,52.875H5.141A5.132,5.132,0,0,0,0,58.016,36,36,0,0,0,35.984,94H58.016A36,36,0,0,0,94,58.016a5.132,5.132,0,0,0-5.141-5.141H83.719A41.054,41.054,0,0,0,51.406,68.554V52.875A24.971,24.971,0,0,0,76.375,27.906V7.344a4.418,4.418,0,0,0-7.123-3.488L59.3,11.621Z" transform="translate(1 846.186) rotate(-17)" fill="url(#a)"/></g></svg>